<svg xmlns="http://www.w3.org/2000/svg" width="100" height="28" viewBox="0 0 225 28" fill="none">
<path
  d="M84.7164 2.72508C90.625 -0.864919 98.8588 0.310082 103.484 5.47008C102.081 7.06508 100.693 8.67508 99.2397 10.2251C97.4155 8.47508 95.0902 6.93508 92.4441 7.06508C89.5124 6.94008 86.6659 8.94008 85.7588 11.7151C85.1625 14.2101 85.413 17.1651 87.4176 18.9851C90.7252 22.4401 97.5408 21.4851 99.1044 16.7351C96.8241 16.6851 94.5439 16.7101 92.2637 16.6951C92.2687 14.8951 92.2637 13.0901 92.2637 11.2851C96.9244 11.2601 101.59 11.2751 106.256 11.2801C106.501 15.8401 105.629 20.9301 102.071 24.1301C98.7536 27.2851 93.8073 27.7551 89.4673 27.1201C84.1051 26.1951 79.4344 21.8851 78.4571 16.4901C77.3496 11.1801 80.0257 5.42508 84.7164 2.72508Z" fill="white"/>
<path d="M126.718 1.35488C130.606 0.194884 135.012 0.444885 138.61 2.39488C141.932 4.13988 144.538 7.33488 145.31 11.0299C146.358 15.2149 145.115 19.9149 142.088 23.0049C136.771 28.7199 126.693 28.8649 121.18 23.3599C118.684 20.9399 117.101 17.5099 117.216 14.0049C117.05 8.27489 121.315 2.99988 126.718 1.35488ZM129.243 7.33988C126.242 8.26488 124.087 11.3799 124.372 14.5149C124.528 17.5899 126.993 20.3399 130.02 20.8999C134.155 21.9049 138.82 18.3549 138.454 13.9999C138.785 9.31989 133.553 5.84488 129.243 7.33988Z" fill="white"/>
<path d="M164.584 1.94999C170.332 -0.67501 177.599 0.73999 181.829 5.46999C180.466 7.08999 179.022 8.63999 177.629 10.235C175.735 8.45999 173.359 6.83499 170.628 7.06999C166.383 6.91499 162.91 11.335 163.878 15.43C164.564 19.495 169.25 22.035 173.099 20.75C175.234 20.33 176.687 18.6 177.584 16.735C175.249 16.685 172.913 16.715 170.578 16.69C170.573 14.89 170.573 13.095 170.578 11.295C175.239 11.25 179.899 11.28 184.56 11.275C184.871 15.675 184.074 20.445 180.907 23.74C177.474 27.245 172.137 27.86 167.506 27.065C163.803 26.24 160.345 23.99 158.425 20.675C156.636 17.8 156.355 14.225 156.982 10.96C157.864 6.95999 160.846 3.57999 164.584 1.94999Z" fill="white"/>
<path d="M205.488 1.41989C209.592 0.134886 214.308 0.429886 218.042 2.65989C221.114 4.43489 223.424 7.47488 224.301 10.9099C225.103 14.6399 224.461 18.7449 222.061 21.7899C217.52 28.0549 207.768 29.1399 201.629 24.6399C198.111 22.1349 195.946 17.8199 196.237 13.4899C196.267 7.99989 200.336 3.06989 205.488 1.41989ZM208.42 7.27988C205.132 8.16488 202.807 11.6099 203.423 14.9999C203.734 19.2549 208.735 22.1699 212.664 20.6699C216.343 19.5499 218.503 15.1199 217.024 11.5499C215.822 8.13988 211.862 6.28988 208.42 7.27988Z" fill="white"/>
<path d="M0.408569 26.685C0.423604 18.24 0.408571 9.79496 0.418594 1.34996C2.21771 1.35996 4.02184 1.26996 5.82597 1.35996C6.59272 1.21996 6.95355 1.93996 7.36449 2.42496C9.69482 5.63996 12.0602 8.82996 14.3705 12.055C17.0717 8.54496 19.5925 4.88996 22.2536 1.34496C24.3133 1.33996 26.378 1.33996 28.4427 1.34496C28.4477 9.78996 28.4377 18.235 28.4427 26.68C26.1224 26.685 23.8021 26.685 21.4868 26.68C21.4768 21.795 21.4968 16.91 21.4768 12.025C19.1013 15.09 16.7961 18.205 14.3705 21.23C12.0652 18.13 9.66976 15.1 7.34945 12.02C7.35446 16.905 7.35447 21.79 7.35447 26.68C5.03917 26.685 2.72387 26.685 0.408569 26.685Z" fill="white"/>
<path d="M44.0635 26.68C44.0835 18.235 44.0785 9.78997 44.0685 1.34496C51.285 1.33496 58.4965 1.34497 65.713 1.33997C65.713 3.33497 65.713 5.32997 65.723 7.31997C60.8469 7.31997 55.9657 7.32497 51.0845 7.31496C51.0845 8.57497 51.0845 9.82997 51.0845 11.085C54.9985 11.09 58.9125 11.075 62.8264 11.095C62.8064 13.035 62.8064 14.975 62.8264 16.92C58.9125 16.93 55.0035 16.925 51.0895 16.925C51.0845 18.18 51.0845 19.435 51.0795 20.69C55.9607 20.685 60.8419 20.685 65.7281 20.685C65.713 22.685 65.713 24.68 65.723 26.68C58.5015 26.685 51.285 26.685 44.0635 26.68Z" fill="white"/>
</svg>
